
<svg width="400" height="398" viewBox="0 0 400 398" fill="none" xmlns="http://www.w3.org/2000/svg">
<g clip-path="url(#clip0_122_12)">
<path d="M199.245 0C71.7685 0 0 101 0 200.5C0 300 87.3267 401 199.245 401C321.712 401 401 304 401 200.5C401 97 326.722 0 199.245 0Z" fill="#D9D9D9"/>
<path fill-rule="evenodd" clip-rule="evenodd" d="M130 318.5C130 267.633 155.056 222 199.562 222C244.068 222 270 265.589 270 318.5C270 371.411 242.318 405 199.562 405C160.488 405 130 369.367 130 318.5Z" fill="#828282"/>
<path d="M199.562 90C155.056 90 130 125.262 130 160C130 194.738 160.488 230 199.562 230C242.318 230 270 196.135 270 160C270 123.865 244.068 90 199.562 90Z" fill="#828282"/>
<path d="M117.5 160.5C116.667 131 132.1 72.1001 200.5 72.5001C268.9 72.9001 284.333 131.333 286 160.5" stroke="#828282" stroke-width="18"/>
<path d="M119.373 125C102.5 125 93 141.12 93 157C93 172.88 104.559 189 119.373 189C135.584 189 131.335 173.519 131.335 157C131.335 140.481 136.247 125 119.373 125Z" fill="#828282"/>
<path d="M280.627 125C297.5 125 307 141.12 307 157C307 172.88 295.441 189 280.627 189C264.416 189 268.665 173.519 268.665 157C268.665 140.481 263.753 125 280.627 125Z" fill="#828282"/>
</g>
<defs>
<clipPath id="clip0_122_12">
<rect width="400" height="398" fill="white"/>
</clipPath>
</defs>
</svg>
